<svg width="32" height="24" xmlns="http://www.w3.org/2000/svg">
 <!-- Generator: Sketch 55.2 (78181) - https://sketchapp.com -->

 <title>logo</title>
 <desc>Created with Sketch.</desc>
 <g>
  <title>background</title>
  <rect fill="none" id="canvas_background" height="402" width="582" y="-1" x="-1"/>
 </g>
 <g>
  <title>Layer 1</title>
  <g fill-rule="evenodd" fill="none" id="Web">
   <g fill-rule="nonzero" fill="#fb6f91" id="Dashboard">
    <g id="Group-13">
     <g id="Group-12">
      <g id="logo">
       <path stroke="#0f4c81" fill="#0f4c81" id="Path" d="m14.969438,3.69706c0,-1.58824 -0.71111,-3.52941 -4,-3.52941c-1.6,0 -2.22222,0.44117 -3.02222,0.97059c-0.88889,0.61764 -2.04444,1.41176 -4.35555,1.41176c-1.51111,0 -2.57778,-0.26471 -3.46667,-0.61765c0.97778,2.38236 3.37778,5.38236 9.51111,5.38236c3.2,-0.08824 5.33333,-1.94118 5.33333,-3.61765z"/>
       <path stroke="#0f4c81" fill="#0f4c81" id="Path" d="m22.080558,16.66765c-3.11112,0 -4.97778,-0.97059 -5.95556,-1.76471c-0.97778,0.79412 -2.84444,1.76471 -5.95556,1.76471c-4.88888,0 -6.57777,-6.44118 -7.02222,-8.38236c-0.35555,-0.17647 -0.62222,-0.2647 -0.97778,-0.44117l0.44445,4.05882c0.8,6.88235 9.33333,11.47059 13.51111,11.82353c3.91111,-0.44118 12.44444,-4.94118 13.33333,-11.82353l0.44445,-4.14706c-0.26667,0.17647 -0.62222,0.35294 -0.97778,0.52941c-0.26667,2.02942 -1.95556,8.38236 -6.84444,8.38236z"/>
       <path stroke="#0f4c81" fill="#0f4c81" id="Path" d="m24.391668,1.13824c-0.8,-0.52942 -1.51111,-0.97059 -3.02223,-0.97059c-3.28888,0 -4,1.94117 -4,3.52941c0,1.67647 2.13334,3.52941 5.24445,3.52941c6.13333,0 8.53333,-3 9.51111,-5.38235c-0.88889,0.35294 -1.95556,0.61764 -3.37778,0.61764c-2.31111,0.08824 -3.46666,-0.70588 -4.35555,-1.32352z"/>
      </g>
     </g>
    </g>
   </g>
  </g>
 </g>
</svg>